<svg width="96" height="98" viewBox="0 0 96 98" fill="none" xmlns="http://www.w3.org/2000/svg">
<g clip-path="url(#clip0_722_1413)">
<path d="M60.6893 17.2043C60.8138 17.2333 60.9381 17.2623 61.0664 17.2923C61.6142 17.4208 62.1619 17.5504 62.7075 17.6882C63.3451 17.8486 63.9743 17.9861 64.6246 18.0843C65.2493 18.1838 65.791 18.3401 66.364 18.6053C66.4493 18.6441 66.5348 18.6831 66.6227 18.7233C67.8954 19.3245 68.8016 20.1106 69.6858 21.1897C70.1065 21.6998 70.5492 22.1455 71.047 22.5799C72.535 23.9061 73.2902 25.5397 73.9119 27.4046C73.9287 27.7622 73.9385 28.1167 73.9419 28.4745C73.9431 28.5818 73.9443 28.6893 73.9456 28.7998C73.9756 32.1169 73.8257 35.3094 72.7785 38.4864C72.7461 38.5876 72.7139 38.6887 72.6807 38.793C71.6255 42.078 70.0049 44.3364 67.6154 46.7978C67.5014 46.9156 67.3873 47.0334 67.2697 47.1548C66.6956 47.7379 66.1016 48.2871 65.4747 48.8127C65.4067 48.8705 65.3387 48.9282 65.2686 48.9878C64.0152 50.0501 62.7123 50.9665 61.3191 51.8349C57.8197 54.0236 55.7558 57.2502 53.7634 60.776C53.6752 60.9313 53.6752 60.9313 53.5851 61.0896C53.2712 61.6434 52.9622 62.1997 52.6582 62.7592C52.5529 62.953 52.4469 63.1463 52.3405 63.3396C48.3945 70.5221 46.4545 77.9882 47.4135 86.1442C47.425 86.2429 47.4367 86.3418 47.4486 86.4433C47.4705 86.6273 47.4929 86.8113 47.5161 86.9952C47.6876 88.4128 47.6876 88.4128 47.454 88.8898C46.9474 89.4718 46.9474 89.4718 46.4594 89.543C45.9143 89.2818 45.6039 88.8876 45.3261 88.3547C45.2099 87.7996 45.1831 87.2684 45.1799 86.7022C45.1792 86.6156 45.1787 86.5291 45.178 86.4399C45.1762 86.1543 45.1753 85.8687 45.1746 85.5832C45.1743 85.484 45.1739 85.385 45.1736 85.2828C45.1716 84.7555 45.1706 84.228 45.1699 83.7005C45.1694 83.2717 45.1677 82.8428 45.1648 82.414C45.1415 78.8904 45.1923 75.3915 46.2076 71.9838C46.2478 71.8488 46.2878 71.7137 46.329 71.5746C46.7602 70.2037 47.3501 68.9213 47.9627 67.6234C48.0699 67.3945 48.1771 67.1656 48.2843 66.9368C48.5492 66.3713 48.8157 65.8067 49.083 65.2423C49.2187 64.9556 49.354 64.6687 49.4892 64.3816C51.1836 60.7889 53.0029 57.3175 55.5263 54.2276C55.585 54.1556 55.6437 54.0833 55.7043 54.0091C57.1733 52.2142 58.8416 50.848 60.7592 49.5604C62.0957 48.6608 63.3676 47.7181 64.5931 46.6718C64.7064 46.5753 64.8195 46.4787 64.936 46.3791C65.2478 46.105 65.5514 45.8244 65.8524 45.5385C65.9196 45.4748 65.9868 45.411 66.056 45.3454C68.0577 43.4322 69.3408 41.5634 70.2678 38.9272C70.3222 38.7733 70.3767 38.6193 70.4326 38.4606C71.7083 34.7846 72.9707 29.9687 71.2753 26.2634C70.742 25.2647 70.021 24.4507 69.2525 23.6267C69.1748 23.5402 69.0969 23.4536 69.0169 23.3646C66.615 20.8069 63.533 19.7711 60.134 19.4302C59.5807 19.3712 59.0822 19.2545 58.5486 19.0933C56.6227 18.7143 54.5653 18.3761 52.687 19.0844C51.4557 19.4661 50.2155 19.5024 48.9378 19.5149C45.5432 19.5549 42.3053 20.1931 39.0021 20.9339C38.8495 20.9681 38.6967 21.0024 38.5393 21.0377C38.2443 21.1038 37.9495 21.1706 37.6547 21.2381C36.5387 21.4907 36.5387 21.4907 35.9878 21.5233C35.4187 21.6274 35.066 21.8459 34.5839 22.1547C33.9867 22.5289 33.3529 22.8347 32.7253 23.1545C28.9715 25.0906 25.3881 27.3924 22.6275 30.6473C22.1112 31.2537 21.5389 31.8053 20.9706 32.3624C16.3126 36.9574 14.2225 43.0782 12.3329 49.1904C12.2674 49.3866 12.2674 49.3866 12.2006 49.5867C12.0625 50.1469 12.0447 50.6498 12.0464 51.2239C12.0458 51.3359 12.0451 51.4482 12.0445 51.5638C12.0427 51.9339 12.0429 52.3041 12.0431 52.6742C12.0426 52.9351 12.0421 53.1962 12.0415 53.4573C12.0406 54.0058 12.0406 54.5543 12.0413 55.103C12.0418 55.6583 12.041 56.2137 12.0387 56.769C12.0167 61.3043 12.0167 61.3043 12.4588 65.8131C12.4734 65.911 12.488 66.0088 12.503 66.1095C12.5834 66.6265 12.6832 67.1367 12.7972 67.647C12.8459 67.8715 12.8459 67.8715 12.8956 68.1004C13.5826 71.1816 14.5949 74.1403 15.657 77.1076C15.8444 77.6316 16.0297 78.1564 16.211 78.6827C16.6261 79.8865 17.0582 81.0711 17.5668 82.2392C17.6303 82.3857 17.6937 82.5323 17.759 82.6834C19.9846 87.8104 19.9846 87.8104 23.2651 92.2899C23.991 93.0722 24.6216 93.9164 25.2477 94.7798C25.4219 95.0187 25.5993 95.2549 25.7772 95.4909C25.8818 95.6331 25.9863 95.7757 26.0905 95.9183C26.2279 96.1036 26.2279 96.1036 26.368 96.2927C26.6052 96.7472 26.6176 97.0411 26.5628 97.5475C26.311 97.9253 26.311 97.9253 26.065 97.9843C25.9695 97.9856 25.874 97.9868 25.7757 97.9882C25.6815 97.9921 25.5874 97.996 25.4904 98C24.7222 97.8164 24.2302 97.0948 23.7766 96.4927C23.6552 96.3347 23.5337 96.1765 23.4121 96.0187C23.3502 95.9378 23.2882 95.8571 23.2244 95.7738C23.0439 95.5417 22.8597 95.3133 22.6733 95.086C18.4047 89.8779 15.7074 83.9484 13.4662 77.6506C13.4316 77.5538 13.3971 77.457 13.3614 77.3573C12.8166 75.8173 12.377 74.2484 11.9484 72.6726C11.8243 72.2177 11.6979 71.7635 11.5714 71.3093C11.0125 69.282 10.5429 67.2572 10.1921 65.1836C10.1673 65.0463 10.1673 65.0463 10.142 64.9062C9.81431 63.0712 9.7216 60.9481 10.003 59.1059C10.0643 58.6488 10.0843 58.2129 10.088 57.7519C10.0889 57.6685 10.0897 57.5849 10.0906 57.4989C10.0923 57.3192 10.0938 57.1393 10.0951 56.9596C10.0972 56.6734 10.1001 56.3872 10.1033 56.101C10.1121 55.2878 10.1197 54.4746 10.1262 53.6613C10.1302 53.1623 10.1355 52.6632 10.1413 52.164C10.1433 51.9757 10.1449 51.7873 10.146 51.5987C10.1528 50.4404 10.2301 49.3235 10.4439 48.183C10.4615 48.0882 10.4791 47.9934 10.4971 47.8956C10.9469 45.6136 11.8821 43.4988 12.7658 41.3593C12.8051 41.2635 12.8445 41.1677 12.885 41.069C13.994 38.3769 15.244 35.8197 17.1182 33.5752C17.1779 33.5032 17.2376 33.4311 17.2992 33.3568C18.6372 31.7493 20.0686 30.232 21.5557 28.7624C21.9213 28.3999 22.2732 28.0357 22.6039 27.6408C24.4844 25.4482 26.9816 23.9181 29.4591 22.4932C29.5797 22.4237 29.7001 22.3542 29.8243 22.2825C30.5594 21.8591 31.2975 21.4415 32.0399 21.031C32.2311 20.9251 32.4219 20.8186 32.612 20.7109C34.5892 19.5953 36.7402 19.1943 38.9623 18.8667C40.0301 18.7092 41.0519 18.5015 42.0835 18.1802C43.2409 17.8267 44.3279 17.7714 45.5334 17.7586C46.994 17.7323 48.3777 17.4557 49.8011 17.1455C53.0777 16.4368 57.4202 16.4228 60.6893 17.2043Z" fill="#7B458F"/>
<path d="M49.9428 12.2139C50.0705 12.2131 50.1983 12.2122 50.3299 12.2113C50.7364 12.2091 51.1428 12.2083 51.5494 12.208C51.6888 12.2079 51.8282 12.2077 51.9719 12.2075C53.9477 12.208 55.8775 12.267 57.834 12.5655C58.1807 12.6169 58.5274 12.6595 58.8756 12.6997C63.3732 13.2307 67.9572 14.4173 71.6512 17.148C71.753 17.2221 71.8549 17.2961 71.9599 17.3724C73.3351 18.419 74.6598 19.6893 75.5535 21.1757C75.5967 21.2454 75.64 21.3149 75.6844 21.3866C76.9419 23.4248 77.6727 25.645 78.197 27.9723C78.2282 28.1101 78.2593 28.248 78.2915 28.3902C78.9372 31.9683 78.2094 35.18 76.9424 38.4939C76.7273 39.0588 76.5291 39.6275 76.3388 40.2011C75.1996 43.6194 73.3485 46.8792 70.5698 49.2322C68.9814 50.6066 67.4153 52.0764 66.0544 53.6786C65.8519 53.9097 65.6392 54.1251 65.42 54.3404C65.0401 54.7142 64.6892 55.1056 64.3416 55.5094C64.0672 55.8231 63.7838 56.1274 63.5002 56.4328C62.8338 57.1637 62.2257 57.9327 61.6233 58.7167C61.4645 58.9216 61.3025 59.1239 61.1404 59.3262C59.7596 61.0646 58.6563 62.9829 57.5686 64.9132C57.3006 65.3876 57.0258 65.8571 56.7454 66.3242C54.0187 70.8792 51.8586 75.6617 52.8947 81.0861C52.9807 81.4067 53.07 81.7266 53.1622 82.0457C53.3987 82.8974 53.5717 83.7299 53.3981 84.6102C53.0599 84.972 53.0599 84.972 52.6429 85.1136C52.1357 85.1263 51.8308 84.8854 51.4381 84.5776C50.8031 83.8038 50.8134 82.9482 50.7941 81.9906C50.7902 81.844 50.7863 81.6975 50.7824 81.5464C50.7729 81.1432 50.7656 80.74 50.7592 80.3367C50.7546 80.0734 50.7486 79.8101 50.7422 79.5467C50.6104 73.8466 52.2448 69.3315 55.2437 64.5193C55.5678 63.9992 55.8879 63.4766 56.2056 62.9525C57.4067 60.973 58.6439 59.1139 60.1597 57.3618C60.4028 57.0774 60.6373 56.7867 60.8724 56.4957C61.0663 56.2595 61.2603 56.0235 61.4547 55.7877C61.5073 55.7234 61.56 55.659 61.6141 55.5927C62.6121 54.3802 63.7081 53.2812 64.8279 52.1829C65.6902 51.3346 66.4528 50.487 67.1189 49.474C67.5385 48.8802 68.0671 48.4385 68.6299 47.9843C68.7459 47.8902 68.8619 47.7961 68.9815 47.6991C69.0992 47.6038 69.2168 47.5084 69.338 47.41C73.1694 44.2769 75.4022 38.5222 75.9232 33.66C75.9532 33.3523 75.9805 33.0444 76.0073 32.7363C76.057 32.2516 76.057 32.2516 76.1829 31.874C76.2122 31.6161 76.2122 31.6161 76.2144 31.3391C76.2192 31.2017 76.2192 31.2017 76.2243 31.0618C76.1971 30.7185 76.1971 30.7185 75.9951 30.3533C75.712 29.7314 75.7604 29.092 75.758 28.4206C75.6969 25.8809 74.777 23.9906 73.2954 21.9544C73.1872 21.8056 73.1872 21.8056 73.077 21.6537C72.3492 20.6784 71.627 19.8771 70.5364 19.3217C70.2533 19.1542 70.0648 18.9773 69.8416 18.7371C68.4637 17.2805 66.3815 16.6093 64.5157 16.01C64.2404 15.9211 63.9659 15.8294 63.6915 15.7376C63.5102 15.6786 63.3287 15.6197 63.1472 15.5611C63.0685 15.5344 62.9897 15.5078 62.9086 15.4804C61.4309 15.0154 59.8603 14.9709 58.3248 14.9739C58.1464 14.9733 57.9682 14.9727 57.7899 14.9719C57.3116 14.9703 56.8331 14.9702 56.3548 14.9705C55.9523 14.9706 55.5498 14.97 55.1473 14.9694C54.1958 14.968 53.2441 14.968 52.2926 14.9687C51.3184 14.9695 50.3443 14.9679 49.3702 14.9653C48.5272 14.963 47.6844 14.9623 46.8415 14.9627C46.341 14.9629 45.8404 14.9626 45.3399 14.9608C43.2172 14.9539 41.1408 14.9835 39.0477 15.386C38.9069 15.4123 38.7661 15.4386 38.6211 15.4657C38.3149 15.5258 38.013 15.5941 37.7101 15.6692C37.6029 15.6954 37.4956 15.7215 37.3851 15.7484C35.9579 16.1109 34.5737 16.6148 33.2492 17.2582C32.4488 17.643 31.6195 17.9186 30.7788 18.2021C27.2259 19.4081 23.9165 21.0952 21.1723 23.693C21 23.8432 20.8268 23.9926 20.6532 24.1413C19.9837 24.7259 19.3594 25.3443 18.783 26.0209C18.2055 26.6847 17.5725 27.2921 16.9447 27.9077C15.7911 29.0422 14.6663 30.159 13.7453 31.4964C13.6861 31.5807 13.6267 31.6649 13.5656 31.7519C10.548 36.0583 8.29126 41.0867 7.04214 46.1908C6.99556 46.3807 6.99556 46.3807 6.94805 46.5743C6.57596 48.1554 6.4064 49.6917 6.42402 51.3153C6.42502 51.5686 6.42602 51.8221 6.42699 52.0754C6.42862 52.4246 6.43142 52.7741 6.43423 53.1234C6.43907 53.7385 6.44261 54.3536 6.44528 54.9687C6.44682 55.2948 6.44902 55.621 6.45199 55.947C6.456 56.6659 6.43949 57.3452 6.3183 58.0532C6.07869 61.844 7.0275 65.2833 8.08065 68.8775C8.10869 68.9731 8.13671 69.0689 8.16558 69.1676C8.9309 71.7812 9.88367 74.1761 11.0626 76.6317C11.2152 76.9501 11.3665 77.269 11.5177 77.5881C11.6268 77.817 11.7379 78.0449 11.849 78.2727C11.9158 78.4133 11.9826 78.554 12.0514 78.699C12.1111 78.8229 12.1708 78.9467 12.2324 79.0742C12.3824 79.5137 12.3919 79.8696 12.3607 80.3309C12.1459 80.5456 11.8919 80.5186 11.5975 80.5432C11.133 80.5389 10.9191 80.5115 10.5521 80.2202C9.9749 79.5245 9.62184 78.7914 9.33947 77.9394C8.97433 76.8383 8.5431 75.8024 8.04919 74.7536C7.3252 73.2066 6.73669 71.6281 6.19242 70.0102C6.15561 69.9014 6.11879 69.7923 6.08087 69.6803C5.71096 68.5767 5.38317 67.4632 5.09096 66.3366C5.05341 66.1955 5.05341 66.1955 5.01511 66.0517C4.43613 63.7335 4.51162 61.3637 4.50801 58.9915C4.50681 58.5183 4.50255 58.0452 4.49793 57.572C4.49858 57.4298 4.49921 57.2877 4.49987 57.1412C4.48886 56.2383 4.33572 55.4791 4.0397 54.6254C3.79232 53.8645 3.91881 53.2968 4.10751 52.5467C4.32089 51.6283 4.34006 50.7344 4.35926 49.7936C4.54015 43.1667 7.84896 35.7874 11.8571 30.6154C12.0064 30.4214 12.1558 30.2276 12.3051 30.0337C13.1051 28.9979 13.9131 27.9697 14.7524 26.9653C14.8538 26.8405 14.9553 26.7158 15.0597 26.5872C16.7391 24.5486 18.6475 22.5938 20.7948 21.0499C20.9846 20.9037 20.9846 20.9037 21.1783 20.7549C23.5043 18.9873 26.1677 17.6482 28.8511 16.5188C28.9851 16.4624 29.119 16.406 29.2569 16.348C31.58 15.3813 33.9556 14.5656 36.3637 13.8382C36.591 13.7695 36.8176 13.6987 37.0441 13.6272C38.1204 13.2999 39.1642 13.1221 40.2819 13.0089C40.4553 12.9903 40.6284 12.9716 40.8018 12.9527C41.1619 12.9138 41.5223 12.876 41.8827 12.8389C42.3383 12.792 42.7939 12.7435 43.2493 12.6942C43.692 12.6464 44.1348 12.5995 44.5777 12.5527C44.738 12.5356 44.8982 12.5186 45.0634 12.501C46.6875 12.3338 48.3096 12.2217 49.9428 12.2139Z" fill="#7B458F"/>
<path d="M54.7083 21.8004C55.1578 21.8684 55.6076 21.9333 56.0576 21.9981C63.0332 23.0196 63.0332 23.0196 65.0487 24.7974C65.126 24.8613 65.2035 24.925 65.2832 24.9908C66.8223 26.3745 68.1765 28.7898 68.334 30.8449C68.4036 32.2215 68.2845 33.51 67.9366 34.8475C67.9151 34.9321 67.8935 35.0165 67.8713 35.1035C66.9654 38.5989 65.1134 41.517 62.6631 44.1439C62.4824 44.3506 62.302 44.5574 62.1215 44.7643C61.4687 45.4886 60.7563 46.1378 60.0261 46.7821C59.9249 46.8719 59.9249 46.8719 59.8216 46.9637C58.7164 47.9413 57.5627 48.8448 56.3849 49.7328C56.0169 50.011 55.6513 50.2925 55.286 50.5744C54.8901 50.8799 54.4937 51.1851 54.0952 51.4871C53.1143 52.2324 52.1694 53.0125 51.2367 53.8172C51.1482 53.893 51.0596 53.9688 50.9684 54.0468C49.825 55.0348 48.6751 56.0334 47.7208 57.2091C47.6079 57.3427 47.4949 57.4765 47.3819 57.6101C45.8512 59.4438 44.7245 61.3564 43.9539 63.616C43.9002 63.7717 43.8462 63.9273 43.7909 64.0877C43.605 64.6259 43.422 65.1651 43.2397 65.7046C43.2104 65.7914 43.1808 65.8782 43.1505 65.9675C42.7271 67.2198 42.3353 68.4752 42.0704 69.7717C42.0475 69.8818 42.0248 69.9916 42.0012 70.1049C41.4218 73.0369 41.4959 76.0003 41.5117 78.9754C41.5137 79.5215 41.5125 80.0678 41.5112 80.6141C41.5103 81.1453 41.5114 81.6767 41.5129 82.2081C41.5134 82.4593 41.5136 82.7104 41.5131 82.9617C41.5114 84.5275 41.5719 85.9143 42.2195 87.3673C42.6101 88.2987 42.5724 89.3171 42.1959 90.2488C41.79 90.5198 41.6628 90.5764 41.1915 90.5001C40.9511 90.2563 40.9511 90.2563 40.7362 89.927C40.6648 89.8205 40.5933 89.7142 40.5195 89.6045C39.9713 88.6493 39.8553 87.8629 39.7632 86.7707C39.628 85.3386 39.4184 83.9354 39.1465 82.5233C38.9828 81.665 38.8614 80.8198 38.8057 79.9475C38.7994 79.8479 38.793 79.7484 38.7864 79.6458C38.6614 77.1679 39.0684 74.7268 39.4336 72.2843C39.4475 72.1904 39.4614 72.0966 39.4757 72C40.0318 68.2534 40.9001 64.8748 42.3922 61.3861C42.4257 61.3068 42.4593 61.2276 42.4939 61.1459C43.1805 59.5299 44.0075 58.2321 45.2096 56.9578C45.379 56.7708 45.5484 56.5838 45.7177 56.3966C46.398 55.6491 47.1017 54.9259 47.815 54.2097C47.9025 54.1216 47.99 54.0336 48.0801 53.9427C48.5758 53.4481 49.0847 52.9769 49.6149 52.5195C49.9896 52.1926 50.3491 51.8499 50.7109 51.5088C51.4474 50.8208 52.2026 50.1697 52.9946 49.5459C53.0787 49.479 53.163 49.412 53.2498 49.3431C54.2766 48.5278 55.3033 47.7368 56.4029 47.022C57.5934 46.2253 58.6806 45.3102 59.7147 44.3212C59.838 44.2037 59.9618 44.0867 60.0863 43.9704C63.0552 41.1939 65.9177 36.8051 66.3343 32.6657C66.3966 30.5599 65.4669 28.4566 64.1306 26.8545C61.7114 24.3838 57.601 24.3255 54.3521 24.1536C54.2073 24.1458 54.2073 24.1458 54.0595 24.1378C48.0665 23.8214 42.866 24.5859 37.4246 27.1843C37.2609 27.2619 37.2609 27.2619 37.094 27.3413C35.2203 28.2375 33.4275 29.254 31.6486 30.325C31.5024 30.4122 31.5024 30.4122 31.3532 30.5012C28.3667 32.2878 25.6503 34.4987 23.4869 37.2344C23.3772 37.3614 23.3772 37.3614 23.2654 37.4907C22.5129 38.3826 21.9791 39.3529 21.4465 40.3829C21.3531 40.5615 21.2596 40.74 21.1661 40.9184C19.1761 44.7339 17.4405 48.483 16.8689 52.7882C16.8386 53.0136 16.8032 53.2382 16.7662 53.4625C16.6977 54.0131 16.6861 54.5492 16.6853 55.1034C16.6849 55.2138 16.6845 55.3244 16.684 55.4383C16.6834 55.6719 16.6831 55.9056 16.6831 56.1392C16.6829 56.4887 16.6806 56.8383 16.6782 57.1877C16.6715 59.2184 16.8451 61.1559 17.3029 63.1371C17.3704 63.4411 17.4376 63.7452 17.5044 64.0494C17.5558 64.2824 17.5558 64.2824 17.608 64.5201C17.7816 65.3263 17.9393 66.1354 18.0955 66.9452C18.1269 67.1071 18.1583 67.269 18.1905 67.4358C18.3435 68.2334 18.4897 69.0313 18.6247 69.8321C18.9963 72.0339 19.4427 74.1407 20.3853 76.1753C20.637 76.7223 20.852 77.2725 21.0527 77.8408C21.467 78.9753 21.9922 80.0495 22.5291 81.1302C22.6981 81.4705 22.8658 81.8115 23.0334 82.1526C23.2536 82.6007 23.474 83.0487 23.6949 83.4965C24.5175 85.164 25.3153 86.8288 26.0138 88.553C26.7613 90.3858 27.7635 91.9155 28.9097 93.5201C30.5183 95.7778 30.5183 95.7778 30.393 97.284C30.2437 97.543 30.2437 97.543 30.0163 97.6609C29.3833 97.6331 29.029 97.2724 28.6036 96.8443C28.5317 96.7719 28.4596 96.6995 28.3855 96.6249C27.7316 95.9342 27.3303 95.1826 26.9155 94.3346C26.6119 93.72 26.2516 93.1486 25.8805 92.573C24.6898 90.7134 23.617 88.9433 22.9454 86.8256C22.6056 85.7737 22.1172 84.8173 21.6034 83.8419C20.5187 81.7801 19.4446 79.7316 18.5899 77.5605C18.5499 77.4593 18.5097 77.3581 18.4685 77.2538C17.9707 75.9832 17.5595 74.7046 17.214 73.3845C17.1016 72.9323 17.1016 72.9323 16.9438 72.6032C16.7795 72.1346 16.7893 71.6783 16.777 71.1851C16.6998 69.3372 16.3186 67.6837 15.7812 65.9172C14.9129 62.9965 14.7879 60.0733 14.7721 57.0497C14.7699 56.6679 14.7655 56.2862 14.7592 55.9046C14.6527 49.325 17.0919 43.1393 20.599 37.6113C20.6865 37.4728 20.774 37.3341 20.8642 37.1913C22.2651 35.0362 23.99 33.1759 25.9982 31.5812C26.1124 31.4887 26.2263 31.3959 26.344 31.3005C32.7306 26.2296 40.3003 23.1173 48.2624 21.5783C48.4032 21.5495 48.4032 21.5495 48.5468 21.5201C50.6012 21.1598 52.6714 21.4916 54.7083 21.8004Z" fill="#7B458F"/>
<path d="M49.1369 27.8086C49.489 27.8106 49.8412 27.8086 50.1934 27.8062C51.4453 27.8047 52.5739 27.8704 53.7792 28.236C54.0187 28.3028 54.0187 28.3028 54.2631 28.3709C56.4477 29.1146 58.5146 30.5515 59.5768 32.6472C60.6902 35.1216 59.5706 38.2076 58.6867 40.603C58.0549 42.1537 57.159 43.2027 56.0084 44.3931C55.8006 44.615 55.6056 44.8438 55.4112 45.0776C55.0614 45.4899 54.6859 45.8324 54.2597 46.1641C54.1479 46.2519 54.1479 46.2519 54.0338 46.3414C53.3178 46.8857 52.551 47.3241 51.7681 47.7638C50.8335 48.2916 49.9701 48.887 49.1159 49.5356C49.0469 49.588 48.9777 49.6405 48.9064 49.6946C48.5614 49.9574 48.2178 50.2224 47.8754 50.4886C47.4886 50.7874 47.0979 51.0797 46.7055 51.3709C41.4861 55.294 38.102 61.2515 36.2605 67.4321C36.2188 67.5569 36.1773 67.6817 36.1345 67.8102C36.116 68.0013 36.104 68.193 36.0957 68.385C36.0906 68.5035 36.0853 68.6222 36.0801 68.7444C36.0753 68.875 36.0704 69.0055 36.0655 69.14C36.0602 69.2783 36.055 69.4165 36.0495 69.5589C35.9904 71.275 35.9803 72.9911 35.9781 74.708C35.9776 75.0832 35.9758 75.4584 35.9729 75.8336C35.9568 78.0154 35.9865 80.1506 36.3866 82.304C36.4147 82.46 36.443 82.616 36.4722 82.7767C36.5485 83.165 36.6333 83.5495 36.7253 83.9346C36.7575 84.0707 36.7899 84.2071 36.8231 84.3473C37.4824 87.0319 38.5681 89.4533 39.8068 91.9155C39.9208 92.1427 40.0325 92.3709 40.144 92.5993C40.202 92.7141 40.26 92.829 40.3197 92.9474C40.446 93.354 40.4048 93.6173 40.2936 94.025C40.0415 94.2772 40.0415 94.2772 39.6477 94.348C38.9584 94.248 38.6209 93.8921 38.151 93.3948C37.9022 93.0494 37.7092 92.689 37.5208 92.3078C37.4682 92.2046 37.4156 92.1013 37.3615 91.995C36.8248 90.9151 36.3976 89.7971 35.9929 88.6623C35.8921 88.3809 35.7882 88.1008 35.683 87.8208C33.9679 83.2028 33.3653 78.5534 33.3327 73.659C33.331 73.4372 33.3288 73.2156 33.3259 72.994C33.322 72.678 33.3208 72.3621 33.3203 72.0461C33.3188 71.9518 33.3173 71.8575 33.3156 71.7604C33.3181 71.1754 33.4241 70.7331 33.6475 70.1937C33.7881 69.8267 33.8382 69.4567 33.8934 69.0686C33.9191 68.9006 33.945 68.7327 33.9713 68.5647C33.9847 68.4777 33.9981 68.3907 34.012 68.3012C34.3533 66.1515 34.9818 64.253 35.8823 62.2649C35.9466 62.1209 36.0109 61.977 36.077 61.8286C37.2777 59.1635 38.6687 56.5783 40.5456 54.3247C40.655 54.1899 40.7642 54.0551 40.8735 53.9201C42.6676 51.7278 44.7087 50.0657 47.0507 48.4891C47.804 47.9816 48.5426 47.4591 49.2735 46.9203C50.0094 46.378 50.7613 45.8935 51.55 45.4316C52.5174 44.8604 53.319 44.2041 54.1092 43.4082C54.2714 43.2459 54.438 43.0881 54.6049 42.9306C56.43 41.1883 57.2722 39.0674 57.3337 36.559C57.3364 36.2896 57.3383 36.0202 57.3397 35.7506C57.3422 35.6172 57.3449 35.4836 57.3475 35.3461C57.3543 33.969 57.1137 32.6935 56.1739 31.6389C54.4417 30.1772 50.4809 29.5037 48.2553 29.6524C46.7529 29.8345 45.2733 30.2879 43.8174 30.6894C43.5657 30.7579 43.3133 30.8245 43.0609 30.8905C38.6543 32.0412 35.0178 34.3188 32.0752 37.8135C31.7682 38.1574 31.4378 38.4765 31.1088 38.7991C30.5216 39.3778 29.9848 39.978 29.4729 40.6255C29.2936 40.8509 29.1096 41.0721 28.9204 41.2892C28.369 41.9273 27.9072 42.5804 27.4932 43.3127C27.4519 43.3855 27.4107 43.4582 27.3682 43.5333C27.2175 43.8088 27.0752 44.0876 26.934 44.3682C26.8225 44.5889 26.8225 44.5889 26.7089 44.8141C26.0511 46.1478 25.5418 47.515 25.0696 48.924C24.9488 49.2836 24.8257 49.6424 24.7022 50.0013C24.094 51.7869 23.5935 53.5737 23.3184 55.4434C23.3036 55.5363 23.289 55.6292 23.2737 55.7248C23.0853 56.9563 23.0076 58.1786 23.0102 59.4237C23.01 59.5578 23.01 59.692 23.0098 59.8301C23.0097 60.1128 23.01 60.3954 23.0105 60.6782C23.0112 61.1009 23.0105 61.5238 23.0097 61.9465C23.0092 62.7669 23.0164 63.587 23.027 64.4073C23.028 64.5321 23.0288 64.6569 23.03 64.7856C23.0454 66.2163 23.1844 67.4774 23.6074 68.8436C23.8201 69.5438 23.9615 70.2558 24.1026 70.9733C24.1289 71.1064 24.1552 71.2393 24.1822 71.3763C24.2626 71.7867 24.342 72.197 24.4212 72.6073C25.1186 76.2331 25.1186 76.2331 26.1699 79.7676C26.2224 79.9207 26.275 80.0736 26.3291 80.2313C26.6151 81.0514 26.9265 81.844 27.3051 82.6258C27.4474 82.9556 27.5362 83.2783 27.6194 83.6274C27.8839 84.6513 28.3843 85.4734 29.0309 86.3046C29.8528 87.3656 30.4466 88.5007 31.0501 89.6976C31.7445 91.066 32.5355 92.3553 33.3617 93.6469C33.6289 94.0659 33.8938 94.486 34.1574 94.9072C34.2171 95.0001 34.2769 95.0929 34.3385 95.1885C34.8462 96.0013 34.8462 96.0013 34.7481 96.5457C34.4667 96.9793 34.2791 97.0422 33.7713 97.1522C33.2844 97.1225 33.0881 96.9544 32.7694 96.5944C32.1 95.8055 31.6 94.9177 31.0852 94.025C30.98 93.8446 30.8745 93.6644 30.769 93.4842C30.6091 93.211 30.4493 92.9379 30.2901 92.6644C29.8182 91.8548 29.334 91.0532 28.848 90.2519C28.059 88.9438 27.3073 87.6165 26.5676 86.28C26.3424 85.8732 26.1142 85.4692 25.8746 85.0707C24.5289 82.8247 23.9666 80.3995 23.3898 77.8733C23.2965 77.4654 23.2018 77.0578 23.1062 76.6502C22.9484 75.9734 22.7973 75.295 22.6487 74.6159C22.6145 74.4594 22.5802 74.3028 22.5449 74.1415C21.9284 71.3156 21.3602 68.4989 21.0293 65.6232C20.9357 64.8427 20.7962 64.0909 20.6086 63.3281C20.2691 61.918 20.2501 60.6072 20.6633 59.2001C20.8568 58.5116 20.9116 57.8215 20.9657 57.1112C21.068 55.7818 21.2135 54.4913 21.5145 53.1904C21.5371 53.09 21.5598 52.9896 21.5832 52.8862C22.6494 48.2519 24.3391 43.454 27.4762 39.8266C27.7305 39.5323 27.9806 39.2345 28.2306 38.9365C28.3989 38.7362 28.5685 38.5372 28.7383 38.3383C28.9676 38.0697 29.1939 37.7991 29.4188 37.527C30.9617 35.672 32.6524 33.9241 34.6221 32.521C34.6969 32.4673 34.7717 32.4134 34.8487 32.3579C37.2601 30.6383 40.0731 29.3913 42.9088 28.559C43.0021 28.5308 43.0955 28.5029 43.1917 28.474C45.1366 27.9381 47.1286 27.7948 49.1369 27.8086Z" fill="#7B458F"/>
<path d="M49.6478 34.3099C50.7351 34.8547 51.3307 35.6794 51.723 36.8147C52.1294 38.4539 51.8185 40.1811 51.0038 41.645C49.787 43.4732 47.8258 44.4297 45.9721 45.5095C41.6601 48.0236 38.1379 51.1627 36.6109 56.0567C36.1906 57.4013 35.5027 58.7601 34.6507 59.8864C34.2082 60.0281 34.2082 60.0281 33.7655 60.0124C33.4574 59.8469 33.4574 59.8469 33.2598 59.5081C33.1504 58.6127 33.3329 57.8331 33.6312 56.9945C33.6709 56.8803 33.7108 56.766 33.7516 56.6483C35.2147 52.5596 37.8554 48.7822 41.2267 46.0182C41.3346 45.9204 41.4427 45.8225 41.5538 45.7217C42.5404 44.8488 43.5781 44.3029 44.7677 43.7488C46.6545 42.8473 48.7848 41.1558 49.7312 39.2372C49.9458 38.6058 49.9763 38.0305 49.6992 37.4156C49.2329 36.7111 48.6106 36.2942 47.8027 36.0583C45.8227 35.7943 43.9636 36.5578 42.3821 37.7085C42.076 37.9513 41.7771 38.2004 41.4796 38.4537C41.3741 38.5332 41.2688 38.6129 41.1601 38.695C40.8259 38.9761 40.5917 39.2606 40.3336 39.6119C40.235 39.7462 40.1363 39.8805 40.0347 40.0188C39.926 40.1694 39.8176 40.3199 39.7092 40.4708C39.6232 40.5902 39.6232 40.5902 39.5357 40.7121C39.083 41.3428 38.6364 41.9778 38.1917 42.6141C38.1223 42.713 38.0531 42.8118 37.9817 42.9136C36.0926 45.6148 34.5922 48.2571 33.4989 51.3717C33.3476 51.8007 33.1902 52.227 33.0304 52.6529C33.0019 52.7293 32.9733 52.806 32.9438 52.8848C32.7346 53.4391 32.5153 53.9887 32.2935 54.5381C31.1417 57.3964 30.4396 60.1573 29.9271 63.1882C29.876 63.4876 29.8231 63.7869 29.767 64.0855C29.4301 65.9832 29.5734 67.6448 30.0353 69.4972C30.5304 71.4967 30.8806 73.4923 31.1335 75.5354C31.7065 80.1107 32.5557 84.5196 34.5797 88.7023C34.6438 88.8352 34.7079 88.9683 34.774 89.1053C35.4856 90.5697 36.2392 92.0119 36.9985 93.4521C37.6632 94.7276 37.6632 94.7276 37.5594 95.1872C37.3464 95.5011 37.1189 95.7357 36.8006 95.9438C36.4213 95.9831 36.4213 95.9831 36.0419 95.8176C35.4642 95.2668 35.0544 94.6053 34.6745 93.9107C34.6206 93.8135 34.5668 93.7162 34.5113 93.616C34.0563 92.7754 33.6729 91.9098 33.3208 91.0217C33.1168 90.5193 32.8997 90.041 32.6188 89.5766C31.8192 88.2535 31.3676 86.954 30.9754 85.4637C30.911 85.226 30.8465 84.9884 30.7819 84.7507C30.1852 82.5295 29.6945 80.2883 29.2596 78.0306C29.2174 77.8117 29.1738 77.593 29.1302 77.3745C28.7939 75.6851 28.599 73.9887 28.423 72.2769C28.3158 71.2374 28.2055 70.2237 27.9167 69.2159C27.6105 68.0992 27.6478 66.9446 27.648 65.796C27.6478 65.6997 27.6475 65.6034 27.6473 65.5043C27.6483 61.4535 28.8511 57.8435 30.2361 54.0825C30.6806 52.8741 31.1076 51.6596 31.5336 50.4446C31.7273 49.8929 31.9232 49.3419 32.1215 48.7919C32.1731 48.6486 32.2245 48.5053 32.2775 48.3576C32.8011 46.9463 33.5201 45.7149 34.3663 44.4738C34.444 44.3586 34.5215 44.2435 34.6016 44.1248C34.8873 43.7013 35.1742 43.2788 35.4611 42.8563C35.6157 42.6287 35.7697 42.4008 35.9233 42.1728C35.9724 42.1001 36.0215 42.0275 36.0721 41.9525C36.4512 41.3852 36.8079 40.8057 37.163 40.2233C38.8021 37.5403 40.6097 35.8058 43.5757 34.607C43.9873 34.4286 44.3569 34.2192 44.744 33.9937C46.308 33.2038 48.1192 33.6434 49.6478 34.3099Z" fill="#7B458F"/>
<path d="M63.951 8.71137C64.1169 8.75116 64.1169 8.75116 64.2862 8.79174C64.3983 8.82037 64.5102 8.84901 64.6256 8.87851C64.8308 8.92414 65.036 8.96937 65.2412 9.01418C70.0558 10.1238 74.9525 11.6843 77.7737 16.0393C80.009 19.6379 81.7346 24.0715 82.4156 28.2526C82.4534 28.4781 82.4978 28.7022 82.5435 28.926C82.9096 30.8453 82.8101 32.8124 82.3954 34.7106C82.2309 35.4817 82.1603 36.2241 82.1369 37.0119C82.1045 37.9595 82.0095 38.8045 81.7051 39.7096C81.6769 39.7935 81.6488 39.8776 81.6198 39.9641C79.6475 45.7618 76.2561 49.8509 71.9848 54.1222C71.6327 54.4742 71.2814 54.8267 70.9302 55.1793C70.6561 55.4545 70.3816 55.7294 70.1072 56.004C69.9775 56.1339 69.8481 56.2638 69.7185 56.3938C69.0741 57.0407 68.427 57.6782 67.7323 58.2711C65.7223 60.01 64.1535 62.0582 62.8674 64.3744C62.8151 64.4671 62.7631 64.5599 62.7093 64.6555C61.9401 66.0327 61.2806 67.4478 60.6775 68.9046C60.6153 69.0546 60.553 69.2045 60.4887 69.3592C59.6775 71.3558 59.1106 73.318 59.071 75.4797C59.0691 75.5723 59.0672 75.6647 59.0654 75.76C59.0569 76.2303 59.0528 76.7003 59.0548 77.1708C59.0533 77.3472 59.0516 77.5235 59.0498 77.6997C59.0503 77.8568 59.0506 78.0138 59.0511 78.1756C58.9534 78.7078 58.7633 78.8906 58.3464 79.2236C57.9539 79.3494 57.9539 79.3494 57.5928 79.3494C57.3854 79.2182 57.3854 79.2182 57.2161 78.9718C57.1769 78.6541 57.1604 78.368 57.1616 78.0501C57.1603 77.9125 57.1603 77.9125 57.1589 77.7719C57.1572 77.4718 57.1588 77.1719 57.1611 76.8719C57.1615 76.7697 57.162 76.6673 57.1623 76.562C57.1988 69.98 60.0455 64.196 64.0365 59.1092C64.266 58.8153 64.4931 58.5195 64.7199 58.2234C64.8767 58.019 65.0336 57.8147 65.1907 57.6103C65.263 57.5159 65.3354 57.4213 65.4098 57.324C65.9655 56.6049 66.5303 55.9949 67.2786 55.4711C68.7251 54.4577 69.9695 53.2709 71.2105 52.0201C71.4851 51.7436 71.7611 51.4684 72.0371 51.1935C72.9731 50.2563 73.8599 49.3148 74.6723 48.2668C74.7902 48.1237 74.9086 47.9811 75.0275 47.839C77.5431 44.741 80.0045 40.5082 80.1078 36.4244C80.1126 36.2592 80.1172 36.0939 80.1221 35.9237C80.1289 35.6644 80.1353 35.4052 80.1419 35.1458C80.1484 34.893 80.1555 34.6402 80.1628 34.3874C80.1665 34.2373 80.1704 34.0875 80.1743 33.933C80.1942 33.6085 80.2457 33.3514 80.3237 33.04C80.3563 32.4506 80.3546 31.8604 80.3551 31.2704C80.3551 31.1853 80.3553 31.1002 80.3553 31.0125C80.3531 29.6027 80.26 28.251 79.9469 26.8738C79.9253 26.7771 79.9038 26.6805 79.8816 26.581C79.3936 24.4507 78.6142 22.4494 77.7374 20.4533C77.6347 20.2195 77.5331 19.9855 77.4315 19.7513C75.94 16.4151 73.3144 13.957 69.9227 12.6233C69.4785 12.4558 69.0321 12.2953 68.5843 12.1377C68.2861 12.0311 67.991 11.9186 67.696 11.8033C66.8091 11.4629 66.0062 11.2302 65.0572 11.1515C64.1564 11.0667 63.6942 10.8278 63.1186 10.1369C63.0356 10.0539 62.9528 9.9708 62.8674 9.88523C62.8204 9.45266 62.8204 9.45266 62.8674 9.00435C63.2368 8.62764 63.4483 8.58409 63.951 8.71137Z" fill="#7B458F"/>
<path d="M70.2844 5.59976C70.4447 5.60085 70.4447 5.60085 70.6082 5.60195C72.8908 5.6658 74.6611 6.9733 76.2101 8.55658C76.4114 8.77533 76.6097 8.99663 76.8078 9.2183C77.5427 10.0402 78.2936 10.6859 79.2044 11.3045C79.7121 11.6526 80.1658 12.0268 80.6054 12.457C80.6907 12.5394 80.776 12.6218 80.8639 12.7067C83.368 15.3006 85.2134 19.1889 86.1308 22.6486C86.1682 22.7696 86.2053 22.8905 86.2438 23.0153C86.7053 24.5309 86.7757 26.1462 86.8412 27.7212C86.88 28.1378 86.9613 28.5148 87.069 28.918C88.5553 35.0179 86.1458 42.7874 82.9913 48.0645C81.7861 49.9728 80.2531 51.6812 78.7819 53.3845C78.5948 53.6022 78.4095 53.8209 78.2242 54.0401C77.4457 54.9606 76.6425 55.8524 75.8197 56.7334C75.3941 57.1895 74.9831 57.6564 74.5776 58.1302C74.4631 58.2619 74.3486 58.3933 74.2341 58.5249C73.449 59.4303 72.6964 60.3523 71.9775 61.3116C71.8077 61.5369 71.6357 61.7607 71.4635 61.9846C69.9126 64.0119 68.5389 66.1633 67.1943 68.3317C67.0698 68.5304 66.9417 68.7267 66.8128 68.9224C66.0265 70.1406 65.5753 71.5521 65.1489 72.929C65.1048 73.0711 65.0607 73.2132 65.0154 73.3595C64.9293 73.641 64.8448 73.9228 64.7624 74.2052C64.7035 74.399 64.7035 74.399 64.6436 74.5967C64.6097 74.712 64.5758 74.8275 64.541 74.9463C64.3811 75.2956 64.2359 75.4321 63.9033 75.6194C63.4421 75.5916 63.2291 75.573 62.8987 75.242C62.5635 73.8987 62.8624 72.7891 63.3383 71.5224C63.3953 71.3671 63.4525 71.2118 63.5113 71.0518C63.8326 70.1916 64.1645 69.3374 64.547 68.5027C64.5816 68.4259 64.616 68.3491 64.6516 68.2701C64.9537 67.6446 65.3592 67.1058 65.7716 66.5492C66.2046 65.9542 66.6013 65.3361 67.0036 64.7201C67.7937 63.521 68.6268 62.3721 69.5118 61.2421C69.7435 60.942 69.963 60.6336 70.1823 60.3243C71.1089 59.0368 72.1281 57.8094 73.1992 56.6405C73.4337 56.3836 73.6609 56.1218 73.8869 55.8575C74.2077 55.4879 74.5438 55.1403 74.8916 54.796C75.3999 54.2917 75.8724 53.7688 76.3356 53.2232C76.4331 53.1117 76.5307 53.0001 76.6311 52.8851C78.1257 51.1617 79.4924 49.3183 80.7211 47.3954C80.8514 47.192 80.9838 46.99 81.1166 46.7881C82.2198 45.0651 83.0373 43.1994 83.6676 41.2559C83.7375 41.0412 83.8109 40.8277 83.8847 40.6145C84.6037 38.4507 84.89 36.1819 84.9051 33.9101C84.9066 33.6861 84.9066 33.6861 84.9081 33.4576C84.9098 33.1417 84.9112 32.8258 84.9122 32.51C84.9135 32.1939 84.9161 31.8779 84.9198 31.5618C84.9466 29.297 84.7699 27.1427 84.3728 24.9134C84.3252 24.6401 84.2777 24.3666 84.2302 24.0933C84.1335 23.5406 84.0361 22.988 83.9267 22.4375C83.8905 22.2493 83.8582 22.0601 83.8309 21.8702C83.6793 20.9636 83.2201 20.2586 82.7403 19.4873C82.6552 19.3483 82.57 19.2092 82.4823 19.066C82.2357 18.665 81.9864 18.2657 81.7355 17.8674C81.6733 17.7681 81.6109 17.6689 81.5466 17.5665C79.8858 14.9469 77.8321 12.736 75.5512 10.6474C75.3617 10.4723 75.1762 10.2933 74.9911 10.1136C73.5394 8.72425 71.7838 7.88584 69.8605 7.3534C69.3909 7.21646 69.0773 7.09719 68.801 6.66925C68.746 6.34683 68.746 6.34683 68.801 6.04015C69.1989 5.53464 69.6852 5.59515 70.2844 5.59976Z" fill="#7B458F"/>
<path d="M78.3821 4.74731C79.729 4.76513 80.49 5.34354 81.4795 6.16028C81.6624 6.30841 81.8452 6.45652 82.0281 6.60457C82.4 6.90728 82.7696 7.21251 83.138 7.51966C83.5033 7.82368 83.8744 8.11648 84.2552 8.40136C87.2506 10.722 88.4863 14.5157 89.4833 18.0219C89.6977 18.7691 89.9301 19.5021 90.2087 20.2279C90.2398 20.309 90.2707 20.3902 90.3027 20.4736C90.4336 20.8113 90.5695 21.146 90.7138 21.4782C91.0563 22.3049 91.1442 23.0908 91.2213 23.9731C91.2875 24.6891 91.3996 25.3785 91.565 26.0784C91.585 26.1647 91.6048 26.2512 91.6253 26.3402C91.72 26.7225 91.8268 27.0484 92.0193 27.3933C92.2348 27.8692 92.2563 28.2137 92.2629 28.7348C92.2641 28.8229 92.2653 28.9111 92.2665 29.002C92.269 29.2856 92.2683 29.5691 92.2668 29.8528C92.2668 29.9971 92.2668 29.9971 92.2668 30.1442C92.2638 31.6069 92.1172 32.845 91.5729 34.217C91.4255 34.7909 91.4137 35.363 91.3925 35.9518C91.3831 36.1741 91.3738 36.3962 91.3643 36.6183C91.3502 36.9639 91.3365 37.3093 91.3238 37.6548C91.0561 44.7908 88.228 51.0654 83.6824 56.5164C83.4241 56.8269 83.1695 57.1404 82.9146 57.4535C81.8026 58.8047 80.6662 60.1236 79.4608 61.393C79.3267 61.5349 79.3267 61.5349 79.1898 61.6796C78.3536 62.539 77.4379 63.2979 76.4265 63.9439C75.691 64.419 75.2209 64.8788 74.7863 65.6472C74.463 66.1743 74.0863 66.646 73.6966 67.1255C73.626 67.214 73.5555 67.3025 73.4827 67.3937C73.4148 67.4766 73.347 67.5596 73.2771 67.645C73.2167 67.7193 73.1562 67.7934 73.0939 67.8698C72.7196 68.2394 72.4491 68.3112 71.9224 68.3286C71.7871 68.3234 71.6517 68.3183 71.5123 68.3129C71.2416 67.8744 71.2007 67.5658 71.2599 67.0548C71.4475 66.6536 71.6858 66.291 71.9302 65.9224C71.9989 65.8169 72.0675 65.7116 72.1382 65.6029C73.4505 63.6145 74.9205 61.8218 76.9375 60.5124C78.3806 59.5515 79.4028 58.3927 80.4254 57.0047C80.749 56.5771 81.0859 56.1644 81.4322 55.755C81.4867 55.6902 81.5409 55.6254 81.5971 55.5588C81.8995 55.2043 82.2139 54.8716 82.5479 54.5464C82.9886 54.1119 83.3665 53.6485 83.7347 53.1522C83.7998 53.0645 83.8649 52.9769 83.9321 52.8867C85.5914 50.6208 86.8135 48.0857 87.6617 45.4146C87.7058 45.2795 87.7499 45.1443 87.7954 45.0051C88.9029 41.594 89.4104 38.2882 89.4933 34.7004C89.5257 33.6317 89.6333 32.6426 90.0115 31.6378C90.4487 30.3475 90.051 29.1115 89.7467 27.8336C89.5254 26.8838 89.3403 25.9253 89.1914 24.9618C88.9012 23.2108 88.507 21.508 87.8613 19.8527C87.6157 19.2216 87.4137 18.5926 87.2358 17.9397C86.289 14.5562 84.5744 11.1564 81.6174 9.12976C80.5979 8.42915 79.7398 7.63318 78.8911 6.73522C78.7272 6.56242 78.56 6.39277 78.3924 6.22367C78.3103 6.13788 78.2284 6.05209 78.144 5.96368C78.0764 5.89346 78.0089 5.82325 77.9394 5.75088C77.8207 5.5312 77.8207 5.5312 77.8556 5.1975C77.983 4.78475 77.983 4.78475 78.3821 4.74731Z" fill="#7B458F"/>
<path d="M45.0581 7.66058C45.2301 7.65945 45.4022 7.65831 45.5742 7.65714C45.9329 7.65509 46.2915 7.65412 46.6502 7.65375C47.1095 7.65307 47.5687 7.64832 48.0278 7.64263C48.3823 7.6389 48.7368 7.63798 49.0913 7.63786C49.3426 7.63708 49.5942 7.63339 49.8455 7.62964C49.9982 7.6304 50.151 7.63116 50.3082 7.63194C50.4426 7.63132 50.5769 7.63067 50.7151 7.63003C51.0647 7.70712 51.0647 7.70712 51.3637 8.0048C51.5673 8.33424 51.5673 8.33424 51.5595 8.66347C51.4316 8.98684 51.3332 9.12058 51.0647 9.3376C50.7993 9.40491 50.7993 9.40491 50.4863 9.43462C50.3077 9.45344 50.3077 9.45344 50.1256 9.47265C49.9295 9.49116 49.9295 9.49116 49.7294 9.51007C48.7958 9.60763 47.8685 9.71728 46.9426 9.87262C45.1407 10.1747 43.4057 10.3766 41.5766 10.388C39.7321 10.4011 38.1049 10.7368 36.3614 11.3444C35.4457 11.6557 34.5296 11.9439 33.5966 12.1988C32.7326 12.4386 31.892 12.7097 31.0519 13.0219C29.9221 13.4376 28.7664 13.7133 27.5959 13.9861C26.2038 14.3127 24.8514 14.6384 23.5432 15.2325C23.3847 15.3029 23.3847 15.3029 23.223 15.3748C20.8417 16.4423 18.6215 17.7433 16.4739 19.2209C16.2549 19.371 16.0343 19.5187 15.8136 19.6663C14.047 20.8659 12.5438 22.3368 11.2276 24.0121C11.1639 24.0926 11.1002 24.1732 11.0346 24.2562C10.3274 25.1567 9.64678 26.037 9.16342 27.0815C8.92661 27.4609 8.63681 27.7312 8.31647 28.0409C7.94568 28.4195 7.64297 28.8387 7.33974 29.2719C7.27475 29.3648 7.20974 29.4575 7.14277 29.5532C6.51889 30.4643 6.01623 31.4058 5.57253 32.4153C5.53111 32.5094 5.48971 32.6037 5.44703 32.7007C3.99179 36.0652 2.83609 39.7757 2.74277 43.4488C2.70496 44.5826 2.65625 45.8613 1.80246 46.7135C1.36262 46.8232 1.36262 46.8232 0.922777 46.7135C0.418596 46.2327 0.100914 45.7343 0.00087772 45.0412C-0.0100081 44.3513 0.0806734 43.7384 0.255652 43.0707C0.301823 42.8922 0.347924 42.7136 0.393961 42.5349C0.430964 42.3925 0.430964 42.3925 0.468716 42.2472C0.605304 41.7158 0.735284 41.1828 0.866324 40.65C3.28596 30.8614 3.28596 30.8614 6.0531 27.6327C6.72829 26.8217 7.29113 25.9507 7.86128 25.0652C10.2571 21.3486 13.1569 18.4468 17.0034 16.2581C17.3185 16.0765 17.6291 15.8877 17.9394 15.6979C20.0645 14.4029 22.1908 13.2822 24.5485 12.4732C24.6803 12.4271 24.8121 12.381 24.9478 12.3336C26.7938 11.6901 28.6468 11.1289 30.5461 10.6648C30.8007 10.5998 31.0528 10.5247 31.3041 10.4483C31.7126 10.3408 32.0606 10.3161 32.4814 10.3096C33.2774 10.2589 33.8415 10.0188 34.5485 9.66636C36.4829 8.75279 38.6848 8.42747 40.8093 8.39267C41.3926 8.37505 41.7573 8.22693 42.2678 7.95797C43.1913 7.65739 44.0927 7.66455 45.0581 7.66058Z" fill="#7B458F"/>
<path d="M44.7339 4.0511C44.8438 4.05988 44.9539 4.06866 45.0672 4.0777C45.7965 4.14989 46.2713 4.29849 46.8023 4.82938C46.8181 5.15956 46.8181 5.15956 46.8023 5.45829C45.8103 5.83207 44.8119 6.00125 43.7664 6.15796C43.6772 6.17156 43.5882 6.18514 43.4962 6.19913C41.3502 6.52478 39.2292 6.70893 37.059 6.76458C31.4883 6.90915 26.4055 8.46193 21.3711 10.7572C21.1255 10.8691 20.8798 10.9803 20.634 11.0914C18.7454 11.9468 16.8682 12.8153 15.0898 13.8858C14.9911 13.9451 14.8924 14.0044 14.7908 14.0655C12.8841 15.221 11.1661 16.4971 9.55263 18.0366C9.44378 18.1388 9.33494 18.2409 9.22279 18.3462C6.89235 20.5919 5.18752 23.453 4.48551 26.6102C4.33096 27.2918 4.15915 27.8206 3.66158 28.3351C3.3863 28.4766 3.3863 28.4766 3.0245 28.4844C2.52192 28.3137 2.14983 28.0587 1.87616 27.5962C1.83786 27.0368 1.92294 26.6189 2.11606 26.0955C2.19344 25.8847 2.19344 25.8847 2.27237 25.6697C2.35657 25.4481 2.35657 25.4481 2.44246 25.2219C2.49989 25.0695 2.55732 24.9171 2.61648 24.7601C3.55823 22.3013 4.78479 20.0222 6.53238 18.0366C6.61982 17.9354 6.70725 17.8343 6.79735 17.73C9.0642 15.1547 11.5759 13.373 14.5864 11.7474C14.6971 11.6877 14.6971 11.6877 14.81 11.6267C18.0413 9.88344 21.2801 8.17937 24.7011 6.83404C24.7863 6.80054 24.8714 6.76704 24.9593 6.73252C26.4954 6.13161 28.0523 5.5387 29.6641 5.17528C29.747 5.15519 29.83 5.13508 29.9155 5.11436C31.124 4.83427 32.3424 4.80966 33.5784 4.78064C35.5345 4.73235 37.4489 4.65932 39.354 4.18475C41.1205 3.75404 42.9369 3.89982 44.7339 4.0511Z" fill="#7B458F"/>
<path d="M88.1193 6.8296C88.4335 7.03311 88.6302 7.19181 88.879 7.45765C88.9433 7.52484 89.0076 7.59203 89.0737 7.66128C89.3125 7.92221 89.5391 8.19071 89.7651 8.46252C89.8176 8.52491 89.8701 8.58731 89.9242 8.6516C90.1023 8.86464 90.2781 9.07943 90.4535 9.29467C90.5351 9.39242 90.5351 9.39242 90.6186 9.49213C91.6513 10.7789 92.3779 12.3374 93.1385 13.7935C93.2319 13.9717 93.3259 14.1496 93.4205 14.3271C94.3693 16.1078 94.9491 17.7371 94.9794 19.7734C95.0071 21.3263 95.1799 22.7629 95.5565 24.2696C95.8777 25.5617 96.01 26.7631 96 28.0967C95.9991 28.2606 95.9985 28.4246 95.9976 28.5934C95.9873 29.6187 95.951 30.6389 95.8655 31.6609C95.8522 31.8318 95.8523 31.8318 95.8387 32.0061C95.8232 32.1625 95.8232 32.1625 95.8076 32.3218C95.799 32.4115 95.7903 32.5014 95.7815 32.594C95.6972 32.8942 95.5826 33.0182 95.3353 33.2074C94.8191 33.2608 94.6351 33.2467 94.196 32.9563C93.9952 32.4795 94.0476 31.9359 94.0427 31.4268C94.0391 31.2196 94.0355 31.0122 94.0318 30.8049C94.0266 30.4814 94.022 30.158 94.0186 29.8345C94.005 27.6097 94.005 27.6097 93.4263 25.4764C93.2898 25.1153 93.2755 24.8255 93.2708 24.4403C93.2679 24.3003 93.265 24.1602 93.2619 24.0157C93.2594 23.8677 93.257 23.7195 93.2545 23.5669C93.2173 22.2204 93.1081 20.9533 92.8035 19.6417C92.7697 19.4871 92.7361 19.3324 92.7015 19.1731C92.0645 16.519 90.6214 14.1302 89.154 11.8539C88.7355 11.2032 88.3305 10.5449 87.9295 9.88347C87.8361 9.73028 87.8361 9.73028 87.7408 9.57401C86.601 7.68747 86.601 7.68747 86.7268 7.08082C87.196 6.77048 87.5752 6.73172 88.1193 6.8296Z" fill="#7B458F"/>
<path d="M35.4076 0.898534C35.6119 1.24387 35.6119 1.24387 35.6197 1.6991C35.4708 2.17146 35.3898 2.2471 34.9834 2.49964C33.8685 2.91345 32.5413 2.7989 31.3698 2.8136C29.1955 2.84108 27.2445 3.02857 25.1793 3.75542C25.0311 3.80674 24.8828 3.85805 24.7302 3.91093C23.642 4.31639 22.6431 4.84654 21.6299 5.41168C20.757 5.89743 19.8708 6.34647 18.9732 6.78497C16.5852 7.96146 14.5252 9.41692 12.5281 11.1748C12.3879 11.297 12.2476 11.4191 12.1074 11.5412C11.9387 11.6898 11.9387 11.6898 11.7666 11.8414C11.4789 12.0435 11.4789 12.0435 11.0154 12.0357C10.599 11.918 10.599 11.918 10.3477 11.5412C10.3724 10.8569 10.5368 10.4975 10.984 9.9872C11.1381 9.80971 11.1381 9.80971 11.2953 9.62862C11.3973 9.51385 11.4994 9.39908 11.6046 9.28084C11.6885 9.18031 11.7724 9.07978 11.8589 8.9762C13.2992 7.27585 15.2074 6.33689 17.1701 5.36852C17.8801 5.01801 18.5814 4.65441 19.2797 4.28128C20.8037 3.47218 22.3582 2.72501 23.9225 1.99733C24.0183 1.95257 24.1143 1.90781 24.2132 1.86171C26.6909 0.726626 32.9723 -1.1157 35.4076 0.898534Z" fill="#7B458F"/>
</g>
<defs>
<clipPath id="clip0_722_1413">
<rect width="96" height="98" fill="white"/>
</clipPath>
</defs>
</svg>
