<svg width="234" height="96" viewBox="0 0 234 96" fill="none" xmlns="http://www.w3.org/2000/svg">
<g filter="url(#filter0_d_839_1449)">
<path d="M24.56 54.448C21.4453 54.448 18.7147 53.7653 16.368 52.4C14.064 51.0347 12.272 49.136 10.992 46.704C9.712 44.2293 9.072 41.3707 9.072 38.128C9.072 34.8427 9.712 31.9627 10.992 29.488C12.272 26.9707 14.064 25.0293 16.368 23.664C18.7147 22.256 21.4453 21.552 24.56 21.552C27.8027 21.552 30.64 22.32 33.072 23.856C35.5467 25.392 37.3173 27.504 38.384 30.192L34.992 31.344C34.3093 29.3813 33.0293 27.8453 31.152 26.736C29.3173 25.584 27.1627 25.008 24.688 25.008C22.3413 25.008 20.272 25.5413 18.48 26.608C16.7307 27.6747 15.3653 29.1893 14.384 31.152C13.4453 33.1147 12.976 35.4187 12.976 38.064C12.976 41.9893 14.0213 45.1253 16.112 47.472C18.2453 49.8187 21.0827 50.992 24.624 50.992C27.0133 50.992 29.1253 50.4587 30.96 49.392C32.7947 48.2827 34.1813 46.7467 35.12 44.784L38.448 45.936C37.296 48.624 35.504 50.7147 33.072 52.208C30.64 53.7013 27.8027 54.448 24.56 54.448ZM71.964 54.768C62.108 54.768 55.324 47.792 55.324 38.512C55.324 29.232 62.108 22.32 71.964 22.32C81.82 22.32 88.604 29.232 88.604 38.512C88.604 47.792 81.82 54.768 71.964 54.768ZM59.036 38.512C59.036 45.616 63.9 51.696 71.964 51.696C80.028 51.696 84.892 45.616 84.892 38.512C84.892 31.472 80.028 25.392 71.964 25.392C63.9 25.392 59.036 31.472 59.036 38.512ZM112.698 54H108.854V22.75H112.26L112.416 29.6562C113.458 27.2396 115 25.3854 117.041 24.0938C119.104 22.7812 121.51 22.125 124.26 22.125C124.76 22.125 125.27 22.1562 125.791 22.2188C126.333 22.2604 126.864 22.3333 127.385 22.4375L126.916 25.9062C125.895 25.6979 124.875 25.5938 123.854 25.5938C121.687 25.5938 119.76 26.125 118.073 27.1875C116.385 28.25 115.062 29.7188 114.104 31.5938C113.166 33.4479 112.698 35.5938 112.698 38.0312V54ZM156.165 54.64C153.776 54.64 151.728 54.2773 150.021 53.552C148.315 52.8267 147.013 51.8027 146.117 50.48C145.221 49.1147 144.773 47.536 144.773 45.744C144.773 43.9093 145.221 42.3947 146.117 41.2C147.056 40.0053 148.379 39.0453 150.085 38.32C151.792 37.5947 153.819 37.0827 156.165 36.784L167.685 35.376C167.557 32.3467 166.64 30.1067 164.933 28.656C163.269 27.2053 160.965 26.48 158.021 26.48C156.357 26.48 154.779 26.8 153.285 27.44C151.792 28.0373 150.213 29.0187 148.549 30.384L146.949 27.696C148.315 26.3733 149.936 25.3067 151.813 24.496C153.733 23.6853 155.803 23.28 158.021 23.28C162.416 23.28 165.701 24.3467 167.877 26.48C170.096 28.6133 171.205 31.6853 171.205 35.696V54H167.749V48.624C166.597 50.6293 165.019 52.144 163.013 53.168C161.008 54.1493 158.725 54.64 156.165 54.64ZM156.677 51.504C159.067 51.504 161.072 51.0133 162.693 50.032C164.315 49.008 165.552 47.7067 166.405 46.128C167.259 44.5493 167.685 42.928 167.685 41.264V38.384L156.869 39.728C154.181 40.0267 152.091 40.624 150.597 41.52C149.147 42.416 148.421 43.8027 148.421 45.68C148.421 47.472 149.147 48.9013 150.597 49.968C152.048 50.992 154.075 51.504 156.677 51.504ZM194.126 54V7.125H197.97V28.3438C200.22 24.1979 204.033 22.125 209.408 22.125C213.553 22.125 216.783 23.3646 219.095 25.8438C221.428 28.3229 222.595 31.7917 222.595 36.25V54H218.751V37.0312C218.751 33.4271 217.845 30.625 216.033 28.625C214.22 26.6042 211.699 25.5938 208.47 25.5938C205.22 25.5938 202.658 26.6146 200.783 28.6562C198.908 30.6979 197.97 33.4896 197.97 37.0312V54H194.126Z" fill="black"/>
</g>
<path d="M10.9362 78.192C8.36016 78.192 6.47216 76.208 6.47216 73.76V73.728C6.47216 71.28 8.34416 69.264 10.9682 69.264C12.5842 69.264 13.5922 69.808 14.3922 70.704L12.9042 72.304C12.3602 71.728 11.8162 71.36 10.9522 71.36C9.73616 71.36 8.87216 72.432 8.87216 73.696V73.728C8.87216 75.04 9.72016 76.096 11.0482 76.096C11.8642 76.096 12.4242 75.744 13.0162 75.184L14.4402 76.624C13.6082 77.536 12.6482 78.192 10.9362 78.192ZM22.4184 78.192C19.8424 78.192 17.9384 76.384 17.9384 73.76V73.728C17.9384 71.28 19.6824 69.264 22.1784 69.264C25.0424 69.264 26.3544 71.488 26.3544 73.92C26.3544 74.112 26.3384 74.336 26.3224 74.56H20.3544C20.5944 75.664 21.3624 76.24 22.4504 76.24C23.2664 76.24 23.8584 75.984 24.5304 75.36L25.9224 76.592C25.1224 77.584 23.9704 78.192 22.4184 78.192ZM20.3224 73.04H23.9864C23.8424 71.952 23.2024 71.216 22.1784 71.216C21.1704 71.216 20.5144 71.936 20.3224 73.04ZM30.7269 78V69.424H33.1589V70.64C33.7189 69.92 34.4389 69.264 35.6709 69.264C37.5109 69.264 38.5829 70.48 38.5829 72.448V78H36.1509V73.216C36.1509 72.064 35.6069 71.472 34.6789 71.472C33.7509 71.472 33.1589 72.064 33.1589 73.216V78H30.7269ZM46.1517 78.144C44.6637 78.144 43.6557 77.552 43.6557 75.568V71.504H42.6317V69.424H43.6557V67.232H46.0877V69.424H48.1037V71.504H46.0877V75.168C46.0877 75.728 46.3277 76 46.8717 76C47.3197 76 47.7197 75.888 48.0717 75.696V77.648C47.5597 77.952 46.9677 78.144 46.1517 78.144ZM52.6103 78V69.306H55.3463V70.476C56.2823 69.72 57.6863 69.09 59.1443 69.09V71.592C58.9643 71.556 58.6763 71.538 58.1723 71.538C56.9663 71.538 55.8503 71.934 55.3463 72.438V78H52.6103ZM67.4862 78.192C64.9102 78.192 63.0062 76.384 63.0062 73.76V73.728C63.0062 71.28 64.7502 69.264 67.2462 69.264C70.1102 69.264 71.4222 71.488 71.4222 73.92C71.4222 74.112 71.4062 74.336 71.3902 74.56H65.4222C65.6622 75.664 66.4302 76.24 67.5182 76.24C68.3342 76.24 68.9262 75.984 69.5982 75.36L70.9902 76.592C70.1902 77.584 69.0382 78.192 67.4862 78.192ZM65.3902 73.04H69.0542C68.9102 71.952 68.2702 71.216 67.2462 71.216C66.2382 71.216 65.5822 71.936 65.3902 73.04ZM87.3596 78.192C84.7036 78.192 82.7356 76.224 82.7356 73.76V73.728C82.7356 71.264 84.7196 69.264 87.3916 69.264C90.0476 69.264 92.0156 71.232 92.0156 73.696V73.728C92.0156 76.192 90.0316 78.192 87.3596 78.192ZM87.3916 76.096C88.7836 76.096 89.6156 75.024 89.6156 73.76V73.728C89.6156 72.464 88.7036 71.36 87.3596 71.36C85.9676 71.36 85.1356 72.432 85.1356 73.696V73.728C85.1356 74.992 86.0476 76.096 87.3916 76.096ZM96.7526 78V71.504H95.7446V69.504H96.7526V68.96C96.7526 68.016 96.9926 67.328 97.4406 66.88C97.8886 66.432 98.5446 66.208 99.4086 66.208C100.177 66.208 100.689 66.304 101.137 66.448V68.464C100.785 68.336 100.449 68.256 100.033 68.256C99.4726 68.256 99.1526 68.544 99.1526 69.184V69.52H101.121V71.504H99.1846V78H96.7526ZM112.517 78V69.306H115.253V70.476C116.189 69.72 117.593 69.09 119.051 69.09V71.592C118.871 71.556 118.583 71.538 118.079 71.538C116.873 71.538 115.757 71.934 115.253 72.438V78H112.517ZM126.177 78.16C124.337 78.16 123.265 76.944 123.265 74.976V69.424H125.697V74.208C125.697 75.36 126.241 75.952 127.169 75.952C128.097 75.952 128.689 75.36 128.689 74.208V69.424H131.121V78H128.689V76.784C128.129 77.504 127.409 78.16 126.177 78.16ZM136.012 78V69.306H138.748V70.476C139.684 69.72 141.088 69.09 142.546 69.09V71.592C142.366 71.556 142.078 71.538 141.574 71.538C140.368 71.538 139.252 71.934 138.748 72.438V78H136.012ZM149.255 78.16C147.639 78.16 146.311 77.232 146.311 75.536V75.504C146.311 73.632 147.735 72.768 149.767 72.768C150.631 72.768 151.255 72.912 151.863 73.12V72.976C151.863 71.968 151.239 71.408 150.023 71.408C149.095 71.408 148.439 71.584 147.655 71.872L147.047 70.016C147.991 69.6 148.919 69.328 150.375 69.328C151.703 69.328 152.663 69.68 153.271 70.288C153.911 70.928 154.199 71.872 154.199 73.024V78H151.847V77.072C151.255 77.728 150.439 78.16 149.255 78.16ZM149.991 76.48C151.127 76.48 151.895 75.856 151.895 74.976V74.544C151.479 74.352 150.935 74.224 150.343 74.224C149.303 74.224 148.663 74.64 148.663 75.408V75.44C148.663 76.096 149.207 76.48 149.991 76.48ZM161.604 78.096C160.922 78.096 160.362 78.016 159.924 77.856C159.487 77.6853 159.162 77.3813 158.948 76.944C158.746 76.496 158.644 75.8507 158.644 75.008V66.8H161.108V74.64C161.108 75.1627 161.178 75.5307 161.316 75.744C161.466 75.9467 161.77 76.048 162.228 76.048C162.356 76.048 162.463 76.048 162.548 76.048C162.634 76.0373 162.719 76.0267 162.804 76.016V78.048C162.698 78.0587 162.58 78.064 162.452 78.064C162.335 78.0747 162.202 78.08 162.052 78.08C161.914 78.0907 161.764 78.096 161.604 78.096ZM176.56 78.16C174.944 78.16 173.616 77.232 173.616 75.536V75.504C173.616 73.632 175.04 72.768 177.072 72.768C177.936 72.768 178.56 72.912 179.168 73.12V72.976C179.168 71.968 178.544 71.408 177.328 71.408C176.4 71.408 175.744 71.584 174.96 71.872L174.352 70.016C175.296 69.6 176.224 69.328 177.68 69.328C179.008 69.328 179.968 69.68 180.576 70.288C181.216 70.928 181.504 71.872 181.504 73.024V78H179.152V77.072C178.56 77.728 177.744 78.16 176.56 78.16ZM177.296 76.48C178.432 76.48 179.2 75.856 179.2 74.976V74.544C178.784 74.352 178.24 74.224 177.648 74.224C176.608 74.224 175.968 74.64 175.968 75.408V75.44C175.968 76.096 176.512 76.48 177.296 76.48ZM188.874 81.8438C187.655 81.8438 186.723 81.6302 186.077 81.2031C185.436 80.7812 185.116 80.1875 185.116 79.4219C185.116 78.8958 185.28 78.4557 185.608 78.1016C185.936 77.7474 186.418 77.4948 187.054 77.3438C186.809 77.2396 186.595 77.0703 186.413 76.8359C186.231 76.5964 186.14 76.3438 186.14 76.0781C186.14 75.7448 186.236 75.4688 186.429 75.25C186.621 75.026 186.9 74.8073 187.265 74.5938C186.806 74.3958 186.442 74.0781 186.171 73.6406C185.905 73.2031 185.772 72.6875 185.772 72.0938C185.772 71.4583 185.91 70.9193 186.186 70.4766C186.468 70.0286 186.874 69.6875 187.405 69.4531C187.942 69.2188 188.593 69.1016 189.358 69.1016C189.52 69.1016 189.707 69.112 189.921 69.1328C190.134 69.1536 190.33 69.1771 190.507 69.2031C190.689 69.2292 190.811 69.25 190.874 69.2656H193.921V70.4766L192.554 70.8281C192.679 71.0208 192.772 71.2266 192.835 71.4453C192.897 71.6641 192.929 71.8958 192.929 72.1406C192.929 73.0781 192.6 73.8099 191.944 74.3359C191.293 74.8568 190.387 75.1172 189.225 75.1172C188.949 75.1016 188.689 75.0807 188.444 75.0547C188.324 75.1484 188.233 75.2474 188.171 75.3516C188.108 75.4557 188.077 75.5651 188.077 75.6797C188.077 75.7943 188.124 75.8906 188.218 75.9688C188.317 76.0417 188.462 76.099 188.655 76.1406C188.853 76.1771 189.098 76.1953 189.39 76.1953H190.874C191.832 76.1953 192.561 76.401 193.061 76.8125C193.567 77.224 193.819 77.8281 193.819 78.625C193.819 79.6458 193.392 80.4375 192.538 81C191.689 81.5625 190.468 81.8438 188.874 81.8438ZM188.975 80.2891C189.543 80.2891 190.03 80.2344 190.436 80.125C190.848 80.0208 191.163 79.8698 191.382 79.6719C191.6 79.4792 191.71 79.2474 191.71 78.9766C191.71 78.7578 191.645 78.5833 191.515 78.4531C191.39 78.3281 191.197 78.2396 190.936 78.1875C190.681 78.1354 190.353 78.1094 189.952 78.1094H188.718C188.426 78.1094 188.163 78.1562 187.929 78.25C187.699 78.3438 187.517 78.474 187.382 78.6406C187.246 78.8125 187.179 79.0104 187.179 79.2344C187.179 79.5625 187.335 79.8203 187.647 80.0078C187.965 80.1953 188.408 80.2891 188.975 80.2891ZM189.358 73.6641C189.806 73.6641 190.134 73.526 190.343 73.25C190.551 72.974 190.655 72.599 190.655 72.125C190.655 71.599 190.546 71.2057 190.327 70.9453C190.113 70.6797 189.791 70.5469 189.358 70.5469C188.921 70.5469 188.593 70.6797 188.374 70.9453C188.155 71.2057 188.046 71.599 188.046 72.125C188.046 72.599 188.153 72.974 188.366 73.25C188.585 73.526 188.916 73.6641 189.358 73.6641ZM197.812 68.48V66.32H200.372V68.48H197.812ZM197.876 78V69.424H200.308V78H197.876ZM205.152 78V69.424H207.584V70.64C208.144 69.92 208.864 69.264 210.096 69.264C211.936 69.264 213.008 70.48 213.008 72.448V78H210.576V73.216C210.576 72.064 210.032 71.472 209.104 71.472C208.176 71.472 207.584 72.064 207.584 73.216V78H205.152ZM220.398 81.8438C219.179 81.8438 218.247 81.6302 217.601 81.2031C216.96 80.7812 216.64 80.1875 216.64 79.4219C216.64 78.8958 216.804 78.4557 217.132 78.1016C217.46 77.7474 217.942 77.4948 218.577 77.3438C218.333 77.2396 218.119 77.0703 217.937 76.8359C217.754 76.5964 217.663 76.3438 217.663 76.0781C217.663 75.7448 217.76 75.4688 217.952 75.25C218.145 75.026 218.424 74.8073 218.788 74.5938C218.33 74.3958 217.965 74.0781 217.695 73.6406C217.429 73.2031 217.296 72.6875 217.296 72.0938C217.296 71.4583 217.434 70.9193 217.71 70.4766C217.991 70.0286 218.398 69.6875 218.929 69.4531C219.465 69.2188 220.116 69.1016 220.882 69.1016C221.043 69.1016 221.231 69.112 221.445 69.1328C221.658 69.1536 221.853 69.1771 222.03 69.2031C222.213 69.2292 222.335 69.25 222.398 69.2656H225.445V70.4766L224.077 70.8281C224.202 71.0208 224.296 71.2266 224.359 71.4453C224.421 71.6641 224.452 71.8958 224.452 72.1406C224.452 73.0781 224.124 73.8099 223.468 74.3359C222.817 74.8568 221.911 75.1172 220.749 75.1172C220.473 75.1016 220.213 75.0807 219.968 75.0547C219.848 75.1484 219.757 75.2474 219.695 75.3516C219.632 75.4557 219.601 75.5651 219.601 75.6797C219.601 75.7943 219.648 75.8906 219.741 75.9688C219.84 76.0417 219.986 76.099 220.179 76.1406C220.377 76.1771 220.622 76.1953 220.913 76.1953H222.398C223.356 76.1953 224.085 76.401 224.585 76.8125C225.09 77.224 225.343 77.8281 225.343 78.625C225.343 79.6458 224.916 80.4375 224.062 81C223.213 81.5625 221.991 81.8438 220.398 81.8438ZM220.499 80.2891C221.067 80.2891 221.554 80.2344 221.96 80.125C222.372 80.0208 222.687 79.8698 222.905 79.6719C223.124 79.4792 223.234 79.2474 223.234 78.9766C223.234 78.7578 223.168 78.5833 223.038 78.4531C222.913 78.3281 222.721 78.2396 222.46 78.1875C222.205 78.1354 221.877 78.1094 221.476 78.1094H220.241C219.95 78.1094 219.687 78.1562 219.452 78.25C219.223 78.3438 219.041 78.474 218.905 78.6406C218.77 78.8125 218.702 79.0104 218.702 79.2344C218.702 79.5625 218.859 79.8203 219.171 80.0078C219.489 80.1953 219.932 80.2891 220.499 80.2891ZM220.882 73.6641C221.33 73.6641 221.658 73.526 221.866 73.25C222.075 72.974 222.179 72.599 222.179 72.125C222.179 71.599 222.07 71.2057 221.851 70.9453C221.637 70.6797 221.314 70.5469 220.882 70.5469C220.445 70.5469 220.116 70.6797 219.898 70.9453C219.679 71.2057 219.57 71.599 219.57 72.125C219.57 72.599 219.676 72.974 219.89 73.25C220.109 73.526 220.439 73.6641 220.882 73.6641ZM83.3419 94.224L82.0459 92.912C81.1339 93.664 80.0619 94.16 78.7659 94.16C76.6219 94.16 75.0059 92.912 75.0059 90.928V90.896C75.0059 89.472 75.7739 88.464 77.1819 87.824C76.6379 87.056 76.3979 86.352 76.3979 85.584V85.552C76.3979 84.016 77.6299 82.608 79.7899 82.608C81.6939 82.608 82.9419 83.856 82.9419 85.424V85.456C82.9419 86.96 81.9819 87.84 80.5899 88.384L82.0779 89.872C82.4459 89.296 82.8139 88.64 83.1659 87.952L84.9739 88.944C84.5419 89.728 84.0619 90.56 83.5019 91.312L85.1499 92.96L83.3419 94.224ZM79.3099 87.088C80.2859 86.72 80.7979 86.304 80.7979 85.6V85.568C80.7979 84.928 80.3659 84.528 79.7419 84.528C79.0859 84.528 78.6539 84.992 78.6539 85.664V85.696C78.6539 86.192 78.8459 86.56 79.3099 87.088ZM79.0539 92.144C79.6139 92.144 80.1579 91.904 80.6699 91.504L78.5259 89.328C77.7899 89.712 77.4859 90.256 77.4859 90.8V90.832C77.4859 91.616 78.1419 92.144 79.0539 92.144ZM96.6074 94V82.32H99.0394V86.64C99.5994 85.92 100.319 85.264 101.551 85.264C103.391 85.264 104.463 86.48 104.463 88.448V94H102.031V89.216C102.031 88.064 101.487 87.472 100.559 87.472C99.6314 87.472 99.0394 88.064 99.0394 89.216V94H96.6074ZM113.2 94.192C110.624 94.192 108.72 92.384 108.72 89.76V89.728C108.72 87.28 110.464 85.264 112.96 85.264C115.824 85.264 117.136 87.488 117.136 89.92C117.136 90.112 117.12 90.336 117.104 90.56H111.136C111.376 91.664 112.144 92.24 113.232 92.24C114.048 92.24 114.64 91.984 115.312 91.36L116.704 92.592C115.904 93.584 114.752 94.192 113.2 94.192ZM111.104 89.04H114.768C114.624 87.952 113.984 87.216 112.96 87.216C111.952 87.216 111.296 87.936 111.104 89.04ZM123.941 94.16C122.325 94.16 120.997 93.232 120.997 91.536V91.504C120.997 89.632 122.421 88.768 124.453 88.768C125.317 88.768 125.941 88.912 126.549 89.12V88.976C126.549 87.968 125.925 87.408 124.709 87.408C123.781 87.408 123.125 87.584 122.341 87.872L121.733 86.016C122.677 85.6 123.605 85.328 125.061 85.328C126.389 85.328 127.349 85.68 127.957 86.288C128.597 86.928 128.885 87.872 128.885 89.024V94H126.533V93.072C125.941 93.728 125.125 94.16 123.941 94.16ZM124.677 92.48C125.813 92.48 126.581 91.856 126.581 90.976V90.544C126.165 90.352 125.621 90.224 125.029 90.224C123.989 90.224 123.349 90.64 123.349 91.408V91.44C123.349 92.096 123.893 92.48 124.677 92.48ZM136.289 94.096C135.607 94.096 135.047 94.016 134.609 93.856C134.172 93.6853 133.847 93.3813 133.633 92.944C133.431 92.496 133.329 91.8507 133.329 91.008V82.8H135.793V90.64C135.793 91.1627 135.863 91.5307 136.001 91.744C136.151 91.9467 136.455 92.048 136.913 92.048C137.041 92.048 137.148 92.048 137.233 92.048C137.319 92.0373 137.404 92.0267 137.489 92.016V94.048C137.383 94.0587 137.265 94.064 137.137 94.064C137.02 94.0747 136.887 94.08 136.737 94.08C136.599 94.0907 136.449 94.096 136.289 94.096ZM144.353 94.144C142.865 94.144 141.857 93.552 141.857 91.568V87.504H140.833V85.424H141.857V83.232H144.289V85.424H146.305V87.504H144.289V91.168C144.289 91.728 144.529 92 145.073 92C145.521 92 145.921 91.888 146.273 91.696V93.648C145.761 93.952 145.169 94.144 144.353 94.144ZM150.657 94V82.32H153.089V86.64C153.649 85.92 154.369 85.264 155.601 85.264C157.441 85.264 158.513 86.48 158.513 88.448V94H156.081V89.216C156.081 88.064 155.537 87.472 154.609 87.472C153.681 87.472 153.089 88.064 153.089 89.216V94H150.657Z" fill="#2C2B2B"/>
<defs>
<filter id="filter0_d_839_1449" x="5.07227" y="7.125" width="221.523" height="55.6431" filterUnits="userSpaceOnUse" color-interpolation-filters="sRGB">
<feFlood flood-opacity="0" result="BackgroundImageFix"/>
<feColorMatrix in="SourceAlpha" type="matrix" values="0 0 0 0 0 0 0 0 0 0 0 0 0 0 0 0 0 0 127 0" result="hardAlpha"/>
<feOffset dy="4"/>
<feGaussianBlur stdDeviation="2"/>
<feComposite in2="hardAlpha" operator="out"/>
<feColorMatrix type="matrix" values="0 0 0 0 0 0 0 0 0 0 0 0 0 0 0 0 0 0 0.25 0"/>
<feBlend mode="normal" in2="BackgroundImageFix" result="effect1_dropShadow_839_1449"/>
<feBlend mode="normal" in="SourceGraphic" in2="effect1_dropShadow_839_1449" result="shape"/>
</filter>
</defs>
</svg>
